<?xml version="1.0" encoding="utf-8"?>
<!-- Generator: Adobe Illustrator 20.1.0, SVG Export Plug-In . SVG Version: 6.00 Build 0)  -->
<svg version="1.1" id="Layer_1" xmlns="http://www.w3.org/2000/svg" xmlns:xlink="http://www.w3.org/1999/xlink" x="0px" y="0px"
	 viewBox="0 0 120 120" style="enable-background:new 0 0 120 120;" xml:space="preserve">
<style type="text/css">
	.st0{fill:url(#SVGID_1_);}
	.st1{fill:url(#SVGID_2_);}
	.st2{fill:url(#SVGID_3_);}
	.st3{fill:url(#SVGID_4_);}
	.st4{fill:url(#SVGID_5_);}
	.st5{fill:url(#SVGID_6_);}
	.st6{fill:url(#SVGID_7_);}
	.st7{fill:url(#SVGID_8_);}
	.st8{fill:url(#SVGID_9_);}
	.st9{fill:url(#SVGID_10_);}
	.st10{fill:url(#SVGID_11_);}
	.st11{fill:url(#SVGID_12_);}
	.st12{fill:url(#SVGID_13_);}
	.st13{fill:url(#SVGID_14_);}
	.st14{fill:url(#SVGID_15_);}
	.st15{fill:url(#SVGID_16_);}
	.st16{fill:url(#SVGID_17_);}
	.st17{fill:url(#SVGID_18_);}
	.st18{fill:url(#SVGID_19_);}
	.st19{fill:url(#SVGID_20_);}
	.st20{fill:url(#SVGID_21_);}
	.st21{fill:url(#SVGID_22_);}
	.st22{fill:url(#SVGID_23_);}
	.st23{fill:url(#SVGID_24_);}
	.st24{fill:url(#SVGID_25_);}
	.st25{fill:url(#SVGID_26_);}
	.st26{fill:url(#SVGID_27_);}
	.st27{fill:url(#SVGID_28_);}
</style>
<g>
	<linearGradient id="SVGID_1_" gradientUnits="userSpaceOnUse" x1="50.1276" y1="61.983" x2="98.0761" y2="61.983">
		<stop  offset="0" style="stop-color:#4A9AD4"/>
		<stop  offset="0.5242" style="stop-color:#5C80C0"/>
		<stop  offset="0.7815" style="stop-color:#9176B3"/>
		<stop  offset="0.8883" style="stop-color:#BC698E"/>
		<stop  offset="1" style="stop-color:#D4645D"/>
	</linearGradient>
	<path class="st0" d="M59.8,75.6c3.4-1.2,6.5-2.7,9.6-4.2c5.8-2.8,10.7-6.6,14.8-11.5c0.4-0.4,0.7-0.5,1.2-0.4c4,1,7.9,0.9,11.7-0.9
		c0.7-0.3,1-0.4,1,0.6C98,69,93.9,77,86.6,83.5c-0.7,0.6-1.1,0.6-1.8,0c-0.8-0.8-1.7-1.6-2.7-2.4c-0.7-0.6-0.8-1.1-0.2-1.9
		c3-3.9,4.8-8.4,5.8-13.2c0-0.2,0.1-0.4,0.1-0.7c0-0.1,0-0.2,0-0.3c-0.4-0.1-0.4,0.2-0.6,0.4c-7.8,8.5-17.5,13.2-28.8,14.8
		c-1,0.1-1.9,0.2-2.9,0.4c-0.6,0.1-0.9-0.1-0.8-0.7c0.5-5.7,1.4-11.4,3.5-16.8c1.7-4.5,3.8-8.7,6.9-12.5c0.1-0.2,0.2-0.4,0.4-0.6
		c-0.8,0-1.4,0.3-2,0.6c-3.4,1.4-6.4,3.5-9.2,5.8c-0.7,0.6-1.1,0.5-1.7,0c-0.7-0.7-1.4-1.3-2.1-1.9c-0.7-0.5-0.7-1-0.2-1.7
		c3-4.2,6.7-7.6,11.4-10c3.4-1.7,7-2.5,10.8-2.7c0.8,0,0.8,0.2,0.8,0.9c-0.2,2.4-0.1,4.9,0.5,7.2c0.2,0.6-0.1,0.9-0.5,1.3
		c-2.3,2.1-4.6,4.4-6.4,7c-1.7,2.5-3.1,5.2-4.3,7.9c-0.8,1.8-1.5,3.6-2,5.4C60.3,71.6,59.8,73.5,59.8,75.6z"/>
	<linearGradient id="SVGID_2_" gradientUnits="userSpaceOnUse" x1="75.455" y1="43.2373" x2="104.9696" y2="43.2373">
		<stop  offset="0" style="stop-color:#4A9AD4"/>
		<stop  offset="0.5242" style="stop-color:#5C80C0"/>
		<stop  offset="0.7815" style="stop-color:#9176B3"/>
		<stop  offset="0.8883" style="stop-color:#BC698E"/>
		<stop  offset="1" style="stop-color:#D4645D"/>
	</linearGradient>
	<path class="st1" d="M89.8,58.2c-7.9,0.3-14.5-7.4-14.3-15.1c0.2-8.4,7-15,15.6-14.9c7.5,0.1,14,7,13.9,14.8
		C104.9,51.7,98.3,58.3,89.8,58.2z M90.3,37.2c-3-0.3-4.9,2.2-5,4.5c-0.1,2.4,2.4,4.7,4.8,4.7c2.5,0,4.9-2.2,4.9-4.5
		C95.1,39.2,93.1,37.2,90.3,37.2z"/>
	<linearGradient id="SVGID_3_" gradientUnits="userSpaceOnUse" x1="9.1495" y1="52.3155" x2="76.1674" y2="52.3155">
		<stop  offset="0" style="stop-color:#4A9AD4"/>
		<stop  offset="0.5242" style="stop-color:#5C80C0"/>
		<stop  offset="0.7815" style="stop-color:#9176B3"/>
		<stop  offset="0.8883" style="stop-color:#BC698E"/>
		<stop  offset="1" style="stop-color:#D4645D"/>
	</linearGradient>
	<path class="st2" d="M70.7,36.6c1.2-0.1,2.3-0.1,3.5-0.1c1.6,0,2-0.3,2-1.9c0-3.9,0-7.8,0-11.8c0-1.7-0.9-3-2.3-3.9
		c-0.9-0.6-1.9-0.7-3-0.7c-3.2,0-6.5,0-9.7,0c-0.7,0-1-0.2-0.9-1c0.1-1,0-2.1,0-3.1c-0.1-3.2-2.7-5.4-5.7-5.5c-9.1,0-18.3,0-27.4,0
		c-0.7,0-0.9,0.2-0.9,1c0,2.5,0,5.1,0,7.6c0,0.9-0.3,1.1-1.1,1.1c-4.9,0-9.8,0-14.7,0c-0.9,0-1.2,0.3-1.2,1.2c0,4.2,0,8.4,0,12.5
		c0,19.2,0,38.4-0.1,57.5c0,3.4,2.3,6.1,5.5,6.1c7.9,0.2,15.7,0.2,23.6,0.1c4.3,0,8.6,0,13,0c7.9,0,15.8,0,23.7,0
		c0.5,0,1.1,0.2,1.1-0.8c0-4.8,0-9.7,0-14.5c0-0.7-0.2-0.7-0.8-0.5c-1.5,0.6-3.1,1.1-4.6,1.6c-0.6,0.2-0.8,0.5-0.8,1.1
		c0,1.9,0,3.7,0,5.6c0,0.4,0.2,0.8-0.3,1.1c-0.2,0.1-0.4,0.1-0.6,0.1c0.2,0,0.4,0,0.6-0.1c-0.4,0-0.8,0-1.2,0c-17.2,0-34.5,0-51.7,0
		c-0.7,0-1.2,0.1-1.2-1c0-21,0-41.9,0-62.9c0-0.8,0.2-1.1,1.1-1.1c3.4,0,6.8,0,10.2,0c3.1,0,5.4-2.2,5.5-5.3c0.1-1.1,0.1-2.2,0-3.2
		c0-0.8,0.2-1.1,1.1-1.1c5.9,0,11.8,0,17.7,0c0.7,0,1.5,0,2.2,0c0.8,0,1.2,0.3,1.1,1.2c-0.1,1,0,1.9,0,2.9c0,3.3,2.1,5.4,5.4,5.4
		c3,0,6,0.1,9,0c0.9,0,1.2,0.2,1.2,1.2c-0.1,3.3,0,6.6-0.1,10C69.7,36.4,69.9,36.7,70.7,36.6z"/>
	<linearGradient id="SVGID_4_" gradientUnits="userSpaceOnUse" x1="23.3682" y1="36.4492" x2="62.2736" y2="36.4492">
		<stop  offset="0" style="stop-color:#4A9AD4"/>
		<stop  offset="0.5242" style="stop-color:#5C80C0"/>
		<stop  offset="0.7815" style="stop-color:#9176B3"/>
		<stop  offset="0.8883" style="stop-color:#BC698E"/>
		<stop  offset="1" style="stop-color:#D4645D"/>
	</linearGradient>
	<path class="st3" d="M62.3,33.6c-1.6,1.3-3.3,2.3-4.6,3.7c-1.7,1.8-3.6,2.2-6,2.2c-9-0.1-18.1-0.1-27.1-0.1c-1.1,0-1.3-0.3-1.3-1.3
		c0.1-1.3,0.1-2.6,0-3.9c0-0.6,0.2-0.8,0.8-0.8c12.5,0,25.1,0.1,37.6,0.1C61.9,33.5,62,33.5,62.3,33.6z"/>
	<linearGradient id="SVGID_5_" gradientUnits="userSpaceOnUse" x1="23.2869" y1="76.7319" x2="50.3935" y2="76.7319">
		<stop  offset="0" style="stop-color:#4A9AD4"/>
		<stop  offset="0.5242" style="stop-color:#5C80C0"/>
		<stop  offset="0.7815" style="stop-color:#9176B3"/>
		<stop  offset="0.8883" style="stop-color:#BC698E"/>
		<stop  offset="1" style="stop-color:#D4645D"/>
	</linearGradient>
	<path class="st4" d="M36.8,79.8c-4.1,0-8.3,0-12.4,0c-0.9,0-1.2-0.3-1.1-1.1c0.1-1.4,0.1-2.8,0-4.1c0-0.7,0.2-0.9,0.9-0.9
		c8.3,0,16.6,0,24.9,0c0.8,0,0.9,0.3,0.9,1c0.1,1.4,0.2,2.8,0.4,4.2c0.1,0.8-0.1,1-0.9,1C45.3,79.8,41,79.8,36.8,79.8
		C36.8,79.8,36.8,79.8,36.8,79.8z"/>
	<linearGradient id="SVGID_6_" gradientUnits="userSpaceOnUse" x1="23.2694" y1="63.2731" x2="48.987" y2="63.2731">
		<stop  offset="0" style="stop-color:#4A9AD4"/>
		<stop  offset="0.5242" style="stop-color:#5C80C0"/>
		<stop  offset="0.7815" style="stop-color:#9176B3"/>
		<stop  offset="0.8883" style="stop-color:#BC698E"/>
		<stop  offset="1" style="stop-color:#D4645D"/>
	</linearGradient>
	<path class="st5" d="M35.8,66.3c-3.8,0-7.6,0-11.4,0c-0.9,0-1.1-0.3-1.1-1.1c0.1-1.3,0.1-2.7,0-4c0-0.6,0.1-0.9,0.9-0.9
		c8,0,16,0,24,0c0.6,0,0.9,0.1,0.7,0.8c-0.3,1.4-0.5,2.9-0.7,4.3c-0.1,0.8-0.4,1-1.1,1C43.4,66.2,39.6,66.3,35.8,66.3
		C35.8,66.3,35.8,66.3,35.8,66.3z"/>
	<linearGradient id="SVGID_7_" gradientUnits="userSpaceOnUse" x1="23.335" y1="50.025" x2="48.7855" y2="50.025">
		<stop  offset="0" style="stop-color:#4A9AD4"/>
		<stop  offset="0.5242" style="stop-color:#5C80C0"/>
		<stop  offset="0.7815" style="stop-color:#9176B3"/>
		<stop  offset="0.8883" style="stop-color:#BC698E"/>
		<stop  offset="1" style="stop-color:#D4645D"/>
	</linearGradient>
	<path class="st6" d="M36.2,47c3.9,0,7.8,0,11.7,0c0.3,0,0.8-0.2,0.9,0.2c0.1,0.2-0.2,0.5-0.4,0.8c-0.9,1.5-1.9,3-2.8,4.5
		c-0.3,0.6-0.7,0.7-1.3,0.7c-6.7,0-13.3,0-20,0c-0.7,0-1-0.2-1-0.9c0.1-1.4,0.1-2.8,0-4.2c0-0.8,0.3-1,1-1C28.3,47,32.2,47,36.2,47
		C36.2,47,36.2,47,36.2,47z"/>
	<linearGradient id="SVGID_8_" gradientUnits="userSpaceOnUse" x1="94.78" y1="32.7031" x2="110.8931" y2="32.7031">
		<stop  offset="0" style="stop-color:#4A9AD4"/>
		<stop  offset="0.5242" style="stop-color:#5C80C0"/>
		<stop  offset="0.7815" style="stop-color:#9176B3"/>
		<stop  offset="0.8883" style="stop-color:#BC698E"/>
		<stop  offset="1" style="stop-color:#D4645D"/>
	</linearGradient>
	<path class="st7" d="M107,41.1c-1.5-7-5.2-12-12.2-14.4c1.5-0.8,3.1-1.3,4.6-1.6c3.3-0.8,6.6-1.1,10-0.7c1.5,0.2,1.4,0.1,1.5,1.6
		c0.1,2.7-0.4,5.4-0.9,8.1c-0.4,2-1,4-2,5.8C107.7,40.3,107.5,40.8,107,41.1z"/>
	<linearGradient id="SVGID_9_" gradientUnits="userSpaceOnUse" x1="63.3845" y1="63.2341" x2="79.9722" y2="63.2341">
		<stop  offset="0" style="stop-color:#4A9AD4"/>
		<stop  offset="0.5242" style="stop-color:#5C80C0"/>
		<stop  offset="0.7815" style="stop-color:#9176B3"/>
		<stop  offset="0.8883" style="stop-color:#BC698E"/>
		<stop  offset="1" style="stop-color:#D4645D"/>
	</linearGradient>
	<path class="st8" d="M65.7,71.9c-0.5-0.2-0.8-0.6-1.1-0.9c-1.7-1.9-1.7-1.9,0.1-3.7c3.9-4.1,8-8.1,11.7-12.4c0.5-0.5,0.7-0.5,1.1,0
		c0.5,0.6,1.1,1.2,1.8,1.7c0.8,0.6,0.9,1,0.2,1.8c-4,4.6-8.2,8.9-12.8,12.9C66.4,71.6,66.1,71.9,65.7,71.9z"/>
	<g>
		<linearGradient id="SVGID_10_" gradientUnits="userSpaceOnUse" x1="9.1069" y1="107.0336" x2="14.8161" y2="107.0336">
			<stop  offset="0" style="stop-color:#4A9AD4"/>
			<stop  offset="0.5242" style="stop-color:#5C80C0"/>
			<stop  offset="0.7815" style="stop-color:#9176B3"/>
			<stop  offset="0.8883" style="stop-color:#BC698E"/>
			<stop  offset="1" style="stop-color:#D4645D"/>
		</linearGradient>
		<path class="st9" d="M9.1,103h1.7v6.6h4v1.4H9.1V103z"/>
		<linearGradient id="SVGID_11_" gradientUnits="userSpaceOnUse" x1="15.3521" y1="108.1055" x2="21.2648" y2="108.1055">
			<stop  offset="0" style="stop-color:#4A9AD4"/>
			<stop  offset="0.5242" style="stop-color:#5C80C0"/>
			<stop  offset="0.7815" style="stop-color:#9176B3"/>
			<stop  offset="0.8883" style="stop-color:#BC698E"/>
			<stop  offset="1" style="stop-color:#D4645D"/>
		</linearGradient>
		<path class="st10" d="M19.7,105.2c0.4,0.2,0.8,0.5,1,0.9c0.2,0.4,0.4,0.8,0.5,1.2c0,0.3,0.1,0.7,0.1,1.2h-4.3c0,0.6,0.2,1,0.6,1.3
			c0.2,0.1,0.5,0.2,0.9,0.2c0.4,0,0.6-0.1,0.9-0.3c0.1-0.1,0.2-0.2,0.3-0.4h1.6c0,0.4-0.2,0.7-0.6,1.1c-0.5,0.6-1.3,0.9-2.2,0.9
			c-0.8,0-1.5-0.2-2.1-0.7c-0.6-0.5-0.9-1.3-0.9-2.4c0-1,0.3-1.8,0.8-2.4c0.5-0.6,1.3-0.8,2.1-0.8C18.8,104.9,19.3,105,19.7,105.2z
			 M17.4,106.6c-0.2,0.2-0.4,0.5-0.4,0.9h2.7c0-0.4-0.2-0.7-0.4-0.9c-0.2-0.2-0.6-0.3-0.9-0.3C17.9,106.2,17.6,106.3,17.4,106.6z"/>
		<linearGradient id="SVGID_12_" gradientUnits="userSpaceOnUse" x1="21.9964" y1="107.1183" x2="27.8096" y2="107.1183">
			<stop  offset="0" style="stop-color:#4A9AD4"/>
			<stop  offset="0.5242" style="stop-color:#5C80C0"/>
			<stop  offset="0.7815" style="stop-color:#9176B3"/>
			<stop  offset="0.8883" style="stop-color:#BC698E"/>
			<stop  offset="1" style="stop-color:#D4645D"/>
		</linearGradient>
		<path class="st11" d="M27.1,105.8c0.4,0.6,0.7,1.3,0.7,2.2c0,0.9-0.2,1.7-0.7,2.3c-0.4,0.6-1.1,0.9-1.8,0.9
			c-0.5,0-0.9-0.1-1.2-0.3c-0.2-0.1-0.4-0.3-0.6-0.6v0.7H22v-8h1.6v2.9c0.2-0.3,0.4-0.5,0.7-0.6c0.3-0.2,0.6-0.3,1.1-0.3
			C26.1,105,26.7,105.3,27.1,105.8z M25.8,109.5c0.2-0.3,0.3-0.8,0.3-1.3c0-0.4-0.1-0.8-0.2-1.1c-0.2-0.5-0.6-0.8-1.2-0.8
			c-0.6,0-1,0.3-1.2,0.8c-0.1,0.3-0.2,0.6-0.2,1.1c0,0.5,0.1,0.9,0.3,1.3c0.2,0.3,0.6,0.5,1,0.5C25.3,109.9,25.6,109.8,25.8,109.5z"
			/>
		<linearGradient id="SVGID_13_" gradientUnits="userSpaceOnUse" x1="28.4221" y1="108.1055" x2="34.3348" y2="108.1055">
			<stop  offset="0" style="stop-color:#4A9AD4"/>
			<stop  offset="0.5242" style="stop-color:#5C80C0"/>
			<stop  offset="0.7815" style="stop-color:#9176B3"/>
			<stop  offset="0.8883" style="stop-color:#BC698E"/>
			<stop  offset="1" style="stop-color:#D4645D"/>
		</linearGradient>
		<path class="st12" d="M32.8,105.2c0.4,0.2,0.8,0.5,1,0.9c0.2,0.4,0.4,0.8,0.5,1.2c0,0.3,0.1,0.7,0.1,1.2H30c0,0.6,0.2,1,0.6,1.3
			c0.2,0.1,0.5,0.2,0.9,0.2c0.4,0,0.6-0.1,0.9-0.3c0.1-0.1,0.2-0.2,0.3-0.4h1.6c0,0.4-0.2,0.7-0.6,1.1c-0.5,0.6-1.3,0.9-2.2,0.9
			c-0.8,0-1.5-0.2-2.1-0.7c-0.6-0.5-0.9-1.3-0.9-2.4c0-1,0.3-1.8,0.8-2.4c0.5-0.6,1.3-0.8,2.1-0.8C31.9,104.9,32.4,105,32.8,105.2z
			 M30.4,106.6c-0.2,0.2-0.4,0.5-0.4,0.9h2.7c0-0.4-0.2-0.7-0.4-0.9c-0.2-0.2-0.6-0.3-0.9-0.3C31,106.2,30.7,106.3,30.4,106.6z"/>
		<linearGradient id="SVGID_14_" gradientUnits="userSpaceOnUse" x1="35.1321" y1="108.0125" x2="40.5133" y2="108.0125">
			<stop  offset="0" style="stop-color:#4A9AD4"/>
			<stop  offset="0.5242" style="stop-color:#5C80C0"/>
			<stop  offset="0.7815" style="stop-color:#9176B3"/>
			<stop  offset="0.8883" style="stop-color:#BC698E"/>
			<stop  offset="1" style="stop-color:#D4645D"/>
		</linearGradient>
		<path class="st13" d="M39.9,105.4c0.4,0.3,0.6,0.9,0.6,1.6v4h-1.6v-3.6c0-0.3,0-0.6-0.1-0.7c-0.2-0.3-0.4-0.5-0.9-0.5
			c-0.5,0-0.9,0.2-1.1,0.7c-0.1,0.2-0.2,0.5-0.2,0.9v3.2h-1.6v-5.9h1.5v0.9c0.2-0.3,0.4-0.5,0.6-0.7c0.3-0.2,0.7-0.4,1.2-0.4
			C39,105,39.5,105.1,39.9,105.4z"/>
		<linearGradient id="SVGID_15_" gradientUnits="userSpaceOnUse" x1="41.5905" y1="108.1" x2="47.0428" y2="108.1">
			<stop  offset="0" style="stop-color:#4A9AD4"/>
			<stop  offset="0.5242" style="stop-color:#5C80C0"/>
			<stop  offset="0.7815" style="stop-color:#9176B3"/>
			<stop  offset="0.8883" style="stop-color:#BC698E"/>
			<stop  offset="1" style="stop-color:#D4645D"/>
		</linearGradient>
		<path class="st14" d="M43.2,109.2c0,0.3,0.1,0.5,0.2,0.6c0.2,0.2,0.6,0.3,1.1,0.3c0.3,0,0.6,0,0.7-0.1c0.2-0.1,0.3-0.2,0.3-0.4
			c0-0.2-0.1-0.3-0.2-0.4c-0.1-0.1-0.7-0.2-1.6-0.5c-0.7-0.2-1.2-0.4-1.4-0.6c-0.3-0.2-0.4-0.6-0.4-1.1c0-0.6,0.2-1,0.6-1.4
			c0.4-0.4,1-0.6,1.8-0.6c0.7,0,1.4,0.1,1.8,0.4s0.7,0.8,0.8,1.5h-1.6c0-0.2-0.1-0.4-0.2-0.5c-0.2-0.2-0.5-0.3-0.9-0.3
			c-0.3,0-0.6,0.1-0.7,0.2c-0.1,0.1-0.2,0.2-0.2,0.4c0,0.2,0.1,0.3,0.2,0.4c0.2,0.1,0.7,0.2,1.6,0.4c0.6,0.1,1.1,0.4,1.4,0.7
			c0.3,0.3,0.5,0.7,0.5,1.1c0,0.6-0.2,1.1-0.7,1.4c-0.4,0.4-1.1,0.6-2,0.6c-0.9,0-1.6-0.2-2.1-0.6c-0.4-0.4-0.7-0.9-0.7-1.5H43.2z"
			/>
		<linearGradient id="SVGID_16_" gradientUnits="userSpaceOnUse" x1="48.2241" y1="107.0336" x2="49.7826" y2="107.0336">
			<stop  offset="0" style="stop-color:#4A9AD4"/>
			<stop  offset="0.5242" style="stop-color:#5C80C0"/>
			<stop  offset="0.7815" style="stop-color:#9176B3"/>
			<stop  offset="0.8883" style="stop-color:#BC698E"/>
			<stop  offset="1" style="stop-color:#D4645D"/>
		</linearGradient>
		<path class="st15" d="M49.8,111.1h-1.6V103h1.6V111.1z"/>
		<linearGradient id="SVGID_17_" gradientUnits="userSpaceOnUse" x1="50.8982" y1="108.1055" x2="56.5036" y2="108.1055">
			<stop  offset="0" style="stop-color:#4A9AD4"/>
			<stop  offset="0.5242" style="stop-color:#5C80C0"/>
			<stop  offset="0.7815" style="stop-color:#9176B3"/>
			<stop  offset="0.8883" style="stop-color:#BC698E"/>
			<stop  offset="1" style="stop-color:#D4645D"/>
		</linearGradient>
		<path class="st16" d="M53.7,107.4c0.3,0,0.5-0.1,0.6-0.1c0.2-0.1,0.3-0.2,0.3-0.4c0-0.2-0.1-0.4-0.3-0.5c-0.2-0.1-0.4-0.1-0.8-0.1
			c-0.4,0-0.6,0.1-0.8,0.3c-0.1,0.1-0.2,0.3-0.2,0.5h-1.5c0-0.5,0.2-0.9,0.4-1.3c0.4-0.5,1.1-0.8,2.1-0.8c0.7,0,1.2,0.1,1.7,0.4
			c0.5,0.3,0.8,0.7,0.8,1.5v2.7c0,0.2,0,0.4,0,0.7c0,0.2,0,0.3,0.1,0.4c0.1,0.1,0.1,0.1,0.2,0.2v0.2h-1.7c0-0.1-0.1-0.2-0.1-0.3
			c0-0.1,0-0.2,0-0.4c-0.2,0.2-0.5,0.4-0.7,0.6c-0.3,0.2-0.7,0.3-1.1,0.3c-0.5,0-1-0.2-1.3-0.5c-0.4-0.3-0.5-0.7-0.5-1.3
			c0-0.7,0.3-1.3,0.9-1.6c0.3-0.2,0.8-0.3,1.4-0.4L53.7,107.4z M54.6,108.2c-0.1,0.1-0.2,0.1-0.3,0.2c-0.1,0-0.2,0.1-0.4,0.1
			l-0.4,0.1c-0.3,0.1-0.6,0.1-0.7,0.2c-0.2,0.1-0.4,0.4-0.4,0.7c0,0.3,0.1,0.5,0.2,0.6c0.1,0.1,0.3,0.2,0.5,0.2
			c0.3,0,0.7-0.1,0.9-0.3c0.3-0.2,0.4-0.6,0.4-1.1V108.2z"/>
		<linearGradient id="SVGID_18_" gradientUnits="userSpaceOnUse" x1="57.4879" y1="108.1492" x2="62.8581" y2="108.1492">
			<stop  offset="0" style="stop-color:#4A9AD4"/>
			<stop  offset="0.5242" style="stop-color:#5C80C0"/>
			<stop  offset="0.7815" style="stop-color:#9176B3"/>
			<stop  offset="0.8883" style="stop-color:#BC698E"/>
			<stop  offset="1" style="stop-color:#D4645D"/>
		</linearGradient>
		<path class="st17" d="M59.1,105.1v3.6c0,0.3,0,0.6,0.1,0.8c0.1,0.3,0.4,0.5,0.8,0.5c0.5,0,0.9-0.2,1.1-0.6
			c0.1-0.2,0.2-0.5,0.2-0.9v-3.2h1.6v6h-1.5v-0.8c0,0-0.1,0.1-0.1,0.2c-0.1,0.1-0.1,0.2-0.2,0.2c-0.2,0.2-0.5,0.4-0.7,0.4
			c-0.2,0.1-0.5,0.1-0.8,0.1c-0.9,0-1.5-0.3-1.8-1c-0.2-0.4-0.3-0.9-0.3-1.5v-3.6H59.1z"/>
		<linearGradient id="SVGID_19_" gradientUnits="userSpaceOnUse" x1="63.7604" y1="106.9926" x2="67.2057" y2="106.9926">
			<stop  offset="0" style="stop-color:#4A9AD4"/>
			<stop  offset="0.5242" style="stop-color:#5C80C0"/>
			<stop  offset="0.7815" style="stop-color:#9176B3"/>
			<stop  offset="0.8883" style="stop-color:#BC698E"/>
			<stop  offset="1" style="stop-color:#D4645D"/>
		</linearGradient>
		<path class="st18" d="M66.8,102.9c0.1,0,0.2,0,0.3,0v1.3c-0.1,0-0.2,0-0.4,0c-0.2,0-0.3,0-0.4,0.1c-0.1,0.1-0.1,0.2-0.1,0.3
			c0,0.1,0,0.3,0,0.5h1v1.1h-1v4.8h-1.5v-4.8h-0.9v-1.1h0.9v-0.4c0-0.6,0.1-1.1,0.3-1.3c0.2-0.4,0.8-0.5,1.6-0.5
			C66.7,102.9,66.8,102.9,66.8,102.9z"/>
		<linearGradient id="SVGID_20_" gradientUnits="userSpaceOnUse" x1="67.6322" y1="108.1055" x2="73.5449" y2="108.1055">
			<stop  offset="0" style="stop-color:#4A9AD4"/>
			<stop  offset="0.5242" style="stop-color:#5C80C0"/>
			<stop  offset="0.7815" style="stop-color:#9176B3"/>
			<stop  offset="0.8883" style="stop-color:#BC698E"/>
			<stop  offset="1" style="stop-color:#D4645D"/>
		</linearGradient>
		<path class="st19" d="M72,105.2c0.4,0.2,0.8,0.5,1,0.9c0.2,0.4,0.4,0.8,0.5,1.2c0,0.3,0.1,0.7,0.1,1.2h-4.3c0,0.6,0.2,1,0.6,1.3
			c0.2,0.1,0.5,0.2,0.9,0.2c0.4,0,0.6-0.1,0.9-0.3c0.1-0.1,0.2-0.2,0.3-0.4h1.6c0,0.4-0.2,0.7-0.6,1.1c-0.5,0.6-1.3,0.9-2.2,0.9
			c-0.8,0-1.5-0.2-2.1-0.7c-0.6-0.5-0.9-1.3-0.9-2.4c0-1,0.3-1.8,0.8-2.4c0.5-0.6,1.3-0.8,2.1-0.8C71.1,104.9,71.6,105,72,105.2z
			 M69.7,106.6c-0.2,0.2-0.4,0.5-0.4,0.9h2.7c0-0.4-0.2-0.7-0.4-0.9c-0.2-0.2-0.6-0.3-0.9-0.3C70.2,106.2,69.9,106.3,69.7,106.6z"/>
		<linearGradient id="SVGID_21_" gradientUnits="userSpaceOnUse" x1="74.3148" y1="108.0125" x2="77.7765" y2="108.0125">
			<stop  offset="0" style="stop-color:#4A9AD4"/>
			<stop  offset="0.5242" style="stop-color:#5C80C0"/>
			<stop  offset="0.7815" style="stop-color:#9176B3"/>
			<stop  offset="0.8883" style="stop-color:#BC698E"/>
			<stop  offset="1" style="stop-color:#D4645D"/>
		</linearGradient>
		<path class="st20" d="M77.6,105c0,0,0.1,0,0.1,0v1.6c-0.1,0-0.2,0-0.3,0c-0.1,0-0.1,0-0.2,0c-0.6,0-1,0.2-1.3,0.6
			c-0.1,0.2-0.2,0.6-0.2,1.1v2.8h-1.6v-6h1.5v1c0.2-0.4,0.5-0.7,0.6-0.8C76.7,105.1,77.1,105,77.6,105C77.6,105,77.6,105,77.6,105z"
			/>
		<linearGradient id="SVGID_22_" gradientUnits="userSpaceOnUse" x1="78.3179" y1="108.1" x2="83.7702" y2="108.1">
			<stop  offset="0" style="stop-color:#4A9AD4"/>
			<stop  offset="0.5242" style="stop-color:#5C80C0"/>
			<stop  offset="0.7815" style="stop-color:#9176B3"/>
			<stop  offset="0.8883" style="stop-color:#BC698E"/>
			<stop  offset="1" style="stop-color:#D4645D"/>
		</linearGradient>
		<path class="st21" d="M79.9,109.2c0,0.3,0.1,0.5,0.2,0.6c0.2,0.2,0.6,0.3,1.1,0.3c0.3,0,0.6,0,0.7-0.1c0.2-0.1,0.3-0.2,0.3-0.4
			c0-0.2-0.1-0.3-0.2-0.4c-0.1-0.1-0.7-0.2-1.6-0.5c-0.7-0.2-1.2-0.4-1.4-0.6c-0.3-0.2-0.4-0.6-0.4-1.1c0-0.6,0.2-1,0.6-1.4
			c0.4-0.4,1-0.6,1.8-0.6c0.7,0,1.4,0.1,1.8,0.4s0.7,0.8,0.8,1.5H82c0-0.2-0.1-0.4-0.2-0.5c-0.2-0.2-0.5-0.3-0.9-0.3
			c-0.3,0-0.6,0.1-0.7,0.2c-0.1,0.1-0.2,0.2-0.2,0.4c0,0.2,0.1,0.3,0.2,0.4c0.2,0.1,0.7,0.2,1.6,0.4c0.6,0.1,1.1,0.4,1.4,0.7
			c0.3,0.3,0.5,0.7,0.5,1.1c0,0.6-0.2,1.1-0.7,1.4c-0.4,0.4-1.1,0.6-2,0.6c-0.9,0-1.6-0.2-2.1-0.6c-0.4-0.4-0.7-0.9-0.7-1.5H79.9z"
			/>
		<linearGradient id="SVGID_23_" gradientUnits="userSpaceOnUse" x1="84.306" y1="107.3223" x2="87.6474" y2="107.3223">
			<stop  offset="0" style="stop-color:#4A9AD4"/>
			<stop  offset="0.5242" style="stop-color:#5C80C0"/>
			<stop  offset="0.7815" style="stop-color:#9176B3"/>
			<stop  offset="0.8883" style="stop-color:#BC698E"/>
			<stop  offset="1" style="stop-color:#D4645D"/>
		</linearGradient>
		<path class="st22" d="M84.3,106.3v-1.1h0.8v-1.7h1.5v1.7h1v1.1h-1v3.1c0,0.2,0,0.4,0.1,0.5c0.1,0.1,0.3,0.1,0.6,0.1
			c0,0,0.1,0,0.2,0c0.1,0,0.1,0,0.2,0v1.2l-0.7,0c-0.7,0-1.2-0.1-1.5-0.4c-0.2-0.2-0.3-0.5-0.3-0.8v-3.7H84.3z"/>
		<linearGradient id="SVGID_24_" gradientUnits="userSpaceOnUse" x1="88.1779" y1="108.1055" x2="94.0906" y2="108.1055">
			<stop  offset="0" style="stop-color:#4A9AD4"/>
			<stop  offset="0.5242" style="stop-color:#5C80C0"/>
			<stop  offset="0.7815" style="stop-color:#9176B3"/>
			<stop  offset="0.8883" style="stop-color:#BC698E"/>
			<stop  offset="1" style="stop-color:#D4645D"/>
		</linearGradient>
		<path class="st23" d="M92.5,105.2c0.4,0.2,0.8,0.5,1,0.9c0.2,0.4,0.4,0.8,0.5,1.2c0,0.3,0.1,0.7,0.1,1.2h-4.3c0,0.6,0.2,1,0.6,1.3
			c0.2,0.1,0.5,0.2,0.9,0.2c0.4,0,0.6-0.1,0.9-0.3c0.1-0.1,0.2-0.2,0.3-0.4H94c0,0.4-0.2,0.7-0.6,1.1c-0.5,0.6-1.3,0.9-2.2,0.9
			c-0.8,0-1.5-0.2-2.1-0.7c-0.6-0.5-0.9-1.3-0.9-2.4c0-1,0.3-1.8,0.8-2.4c0.5-0.6,1.3-0.8,2.1-0.8C91.6,104.9,92.1,105,92.5,105.2z
			 M90.2,106.6c-0.2,0.2-0.4,0.5-0.4,0.9h2.7c0-0.4-0.2-0.7-0.4-0.9c-0.2-0.2-0.6-0.3-0.9-0.3C90.7,106.2,90.4,106.3,90.2,106.6z"/>
		<linearGradient id="SVGID_25_" gradientUnits="userSpaceOnUse" x1="94.9097" y1="107.0336" x2="96.4683" y2="107.0336">
			<stop  offset="0" style="stop-color:#4A9AD4"/>
			<stop  offset="0.5242" style="stop-color:#5C80C0"/>
			<stop  offset="0.7815" style="stop-color:#9176B3"/>
			<stop  offset="0.8883" style="stop-color:#BC698E"/>
			<stop  offset="1" style="stop-color:#D4645D"/>
		</linearGradient>
		<path class="st24" d="M96.5,111.1h-1.6V103h1.6V111.1z"/>
		<linearGradient id="SVGID_26_" gradientUnits="userSpaceOnUse" x1="98.0214" y1="107.0336" x2="99.58" y2="107.0336">
			<stop  offset="0" style="stop-color:#4A9AD4"/>
			<stop  offset="0.5242" style="stop-color:#5C80C0"/>
			<stop  offset="0.7815" style="stop-color:#9176B3"/>
			<stop  offset="0.8883" style="stop-color:#BC698E"/>
			<stop  offset="1" style="stop-color:#D4645D"/>
		</linearGradient>
		<path class="st25" d="M99.6,111.1H98V103h1.6V111.1z"/>
		<linearGradient id="SVGID_27_" gradientUnits="userSpaceOnUse" x1="100.63" y1="108.1055" x2="106.5427" y2="108.1055">
			<stop  offset="0" style="stop-color:#4A9AD4"/>
			<stop  offset="0.5242" style="stop-color:#5C80C0"/>
			<stop  offset="0.7815" style="stop-color:#9176B3"/>
			<stop  offset="0.8883" style="stop-color:#BC698E"/>
			<stop  offset="1" style="stop-color:#D4645D"/>
		</linearGradient>
		<path class="st26" d="M105,105.2c0.4,0.2,0.8,0.5,1,0.9c0.2,0.4,0.4,0.8,0.5,1.2c0,0.3,0.1,0.7,0.1,1.2h-4.3c0,0.6,0.2,1,0.6,1.3
			c0.2,0.1,0.5,0.2,0.9,0.2c0.4,0,0.6-0.1,0.9-0.3c0.1-0.1,0.2-0.2,0.3-0.4h1.6c0,0.4-0.2,0.7-0.6,1.1c-0.5,0.6-1.3,0.9-2.2,0.9
			c-0.8,0-1.5-0.2-2.1-0.7c-0.6-0.5-0.9-1.3-0.9-2.4c0-1,0.3-1.8,0.8-2.4c0.5-0.6,1.3-0.8,2.1-0.8C104.1,104.9,104.6,105,105,105.2z
			 M102.7,106.6c-0.2,0.2-0.4,0.5-0.4,0.9h2.7c0-0.4-0.2-0.7-0.4-0.9c-0.2-0.2-0.6-0.3-0.9-0.3C103.2,106.2,102.9,106.3,102.7,106.6
			z"/>
		<linearGradient id="SVGID_28_" gradientUnits="userSpaceOnUse" x1="107.3125" y1="108.0125" x2="110.7742" y2="108.0125">
			<stop  offset="0" style="stop-color:#4A9AD4"/>
			<stop  offset="0.5242" style="stop-color:#5C80C0"/>
			<stop  offset="0.7815" style="stop-color:#9176B3"/>
			<stop  offset="0.8883" style="stop-color:#BC698E"/>
			<stop  offset="1" style="stop-color:#D4645D"/>
		</linearGradient>
		<path class="st27" d="M110.6,105c0,0,0.1,0,0.1,0v1.6c-0.1,0-0.2,0-0.3,0c-0.1,0-0.1,0-0.2,0c-0.6,0-1,0.2-1.3,0.6
			c-0.1,0.2-0.2,0.6-0.2,1.1v2.8h-1.6v-6h1.5v1c0.2-0.4,0.5-0.7,0.6-0.8C109.7,105.1,110.1,105,110.6,105
			C110.6,105,110.6,105,110.6,105z"/>
	</g>
</g>
</svg>
